<svg id="Capa_1" data-name="Capa 1" xmlns="http://www.w3.org/2000/svg" xmlns:xlink="http://www.w3.org/1999/xlink" viewBox="0 0 613.57 444.52"><defs><style>.cls-1{fill:none;}.cls-2{clip-path:url(#clip-path);}.cls-3{fill:url(#Degradado_sin_nombre_3);}.cls-4{fill:#301d48;opacity:0.35;}.cls-5{fill:#fff;}.cls-6{fill:#539dd6;}.cls-7{fill:#a6c845;}</style><clipPath id="clip-path"><rect class="cls-1" width="613.57" height="444.84"/></clipPath><radialGradient id="Degradado_sin_nombre_3" cx="-6187.34" cy="16625.35" r="2784.79" gradientTransform="translate(3665.14 -5773.55) scale(0.56 0.32)" gradientUnits="userSpaceOnUse"><stop offset="0" stop-color="#c3e2eb"/><stop offset="0.46" stop-color="#0999d6"/><stop offset="0.53" stop-color="#138dcd"/><stop offset="0.7" stop-color="#2776bb"/><stop offset="0.86" stop-color="#3368b0"/><stop offset="1" stop-color="#3763ac"/></radialGradient></defs><g class="cls-2"><rect class="cls-3" x="-595.3" y="-233.74" width="1695.31" height="968.35" rx="2.13" transform="translate(504.72 500.87) rotate(-180)"/><rect class="cls-4" x="-153.39" y="-30.55" width="778.43" height="564.37"/><path class="cls-5" d="M99.36,290.32v27.74H79.66V236.32h32.61a38,38,0,0,1,16.59,3.45A26.08,26.08,0,0,1,140,249.59a26.83,26.83,0,0,1,4,14.46q0,12-8.56,19.12t-23.49,7.15Zm0-15.21h12.91q5.73,0,8.73-2.86t3-8.09a13.15,13.15,0,0,0-3.09-9.15,11,11,0,0,0-8.42-3.48H99.36Z"/><path class="cls-5" d="M222.82,318.06h-19.6V283.92h-29v34.14H154.49V236.32H174.2v32.45h29V236.32h19.6Z"/><path class="cls-5" d="M282.72,302.79h-27L251,318.06H230l30-81.74h18.52l30.21,81.74H287.49Zm-22.29-15.22H278l-8.81-28.35Z"/><path class="cls-5" d="M345,289.15H334.31v28.91h-19.7V236.32h32.17q14.54,0,22.73,6.45t8.2,18.22q0,8.53-3.45,14.14t-10.81,9.08l17.07,33v.84H359.41ZM334.31,274h12.47q5.61,0,8.45-3t2.83-8.24q0-5.3-2.86-8.3t-8.42-3H334.31Z"/><path class="cls-5" d="M415.5,236.32l18.24,56.87,18.19-56.87h25.94v81.74H458.11V299L460,259.9l-19.77,58.16h-13l-19.82-58.22L409.32,299v19.09H389.61V236.32Z"/><path class="cls-5" d="M537.83,302.79h-27l-4.71,15.27H485.05l30-81.74h18.53l30.2,81.74H542.6Zm-22.29-15.22h17.57l-8.81-28.35Z"/><path class="cls-6" d="M109.31,369.75a5.44,5.44,0,0,0-2.06-4.54,25.76,25.76,0,0,0-7.25-3.38,69,69,0,0,1-8.49-3.37Q80.79,353.2,80.79,344a13,13,0,0,1,2.67-8.08A17.24,17.24,0,0,1,91,330.45a29.42,29.42,0,0,1,11-1.95,25.83,25.83,0,0,1,10.67,2.12,17,17,0,0,1,7.33,6,15.81,15.81,0,0,1,2.61,9H109.35a6.67,6.67,0,0,0-2.06-5.22,8,8,0,0,0-5.59-1.86,9,9,0,0,0-5.62,1.57,4.63,4.63,0,0,0,.2,7.84,28.54,28.54,0,0,0,8,3.56,49.61,49.61,0,0,1,9.39,4q8.94,5.14,8.94,14.2A13.46,13.46,0,0,1,117.15,381q-5.45,4.13-15,4.13a29.76,29.76,0,0,1-12.14-2.41,18.29,18.29,0,0,1-8.18-6.59,17.17,17.17,0,0,1-2.74-9.64H92.46c0,3,.76,5.13,2.29,6.53s4,2.11,7.44,2.11a8.59,8.59,0,0,0,5.21-1.42A4.68,4.68,0,0,0,109.31,369.75Z"/><path class="cls-6" d="M172.68,329.26v36.1A20.75,20.75,0,0,1,170.07,376a17,17,0,0,1-7.5,6.84A26.51,26.51,0,0,1,151,385.17q-10.08,0-15.87-5.23t-5.91-14.32V329.26h13.37v36.63q.22,9,8.41,9.05,4.13,0,6.25-2.27t2.12-7.39v-36Z"/><path class="cls-6" d="M198.44,329.26l12.31,38.37L223,329.26h17.5v55.15H227.19V371.53l1.28-26.36-13.33,39.24h-8.79L193,345.13l1.29,26.4v12.88H181V329.26Z"/><path class="cls-6" d="M266.43,329.26l12.31,38.37L291,329.26h17.5v55.15H295.18V371.53l1.28-26.36-13.33,39.24h-8.79L261,345.13l1.29,26.4v12.88H249V329.26Z"/><path class="cls-6" d="M331.12,384.41H317.87V329.26h13.25Z"/><path class="cls-6" d="M382.56,339.52H366v44.89h-13.3V339.52H336.46V329.26h46.1Z"/><path class="cls-7" d="M77.11,220.67h-1V162.16h19.2a27.89,27.89,0,0,1,14,3.52,25,25,0,0,1,9.72,10A30.12,30.12,0,0,1,122.53,190v2.61a30.3,30.3,0,0,1-3.4,14.39,25.08,25.08,0,0,1-9.62,10,27.23,27.23,0,0,1-13.79,3.64Zm1-1.95H95.72a25.31,25.31,0,0,0,12.81-3.38,23.12,23.12,0,0,0,8.88-9.25,28.34,28.34,0,0,0,3.17-13.47V190a28.13,28.13,0,0,0-3.29-13.43,23.09,23.09,0,0,0-9-9.21,26,26,0,0,0-13-3.27H78.08Zm17.4-8.53H89.77v-37.5h5.56c4.31,0,7.66,1.52,9.94,4.54s3.35,7.29,3.35,12.94v2.45c0,5.68-1.13,10.06-3.35,13A11.57,11.57,0,0,1,95.48,210.19Zm-3.76-2h3.76c3.62,0,6.32-1.24,8.24-3.78s3-6.58,3-11.83v-2.45c0-5.22-1-9.18-3-11.76s-4.67-3.77-8.39-3.77H91.72Z"/><path class="cls-7" d="M144.05,220.67H128.5V162.16h15.55Zm-13.6-1.95H142.1V164.11H130.45Z"/><path class="cls-7" d="M176.37,221.45c-7.65,0-13.85-2.38-18.45-7.09s-7.07-11.27-7.39-19.57l0-4.92a34.88,34.88,0,0,1,3-15,22.93,22.93,0,0,1,8.82-10,24.9,24.9,0,0,1,13.23-3.51c7.25,0,13,1.7,17,5.06s6.49,8.46,7.17,15.09l.1,1.07H184.85l-.12-.83c-.43-2.91-1.34-5-2.71-6.17a8.89,8.89,0,0,0-6-1.78,7.93,7.93,0,0,0-7.11,3.91c-1.75,2.73-2.65,6.73-2.68,11.9V193c0,5.42.92,9.51,2.73,12.17s4.46,3.83,8.3,3.83c3.06,0,5.4-.62,6.95-1.84v-7.36h-9.48V188.5h25.07v24.58l-.25.28a23,23,0,0,1-9.61,5.9A41,41,0,0,1,176.37,221.45Zm-.78-58.16a23.08,23.08,0,0,0-12.21,3.22,21.07,21.07,0,0,0-8.08,9.18,32.94,32.94,0,0,0-2.86,14.17l0,4.89c.3,7.76,2.6,13.91,6.83,18.24s10,6.51,17.06,6.51a39,39,0,0,0,13-2.08,21.54,21.54,0,0,0,8.56-5.1V190.45H176.72v7.41h9.48v10.19l-.32.29c-1.91,1.74-4.8,2.62-8.58,2.62-4.47,0-7.8-1.57-9.92-4.68s-3.06-7.45-3.06-13.27v-3.42c0-5.55,1-9.91,3-13a9.87,9.87,0,0,1,8.75-4.8,10.75,10.75,0,0,1,7.24,2.26c1.58,1.37,2.66,3.56,3.22,6.52h11.21c-.76-5.57-2.89-9.84-6.35-12.7C187.68,164.84,182.37,163.29,175.59,163.29Z"/><path class="cls-7" d="M222.29,220.67H206.75V162.16h15.54Zm-13.59-1.95h11.64V164.11H208.7Z"/><path class="cls-7" d="M258.08,220.67H242.49v-46H225.82V162.16h49.23v12.48h-17Zm-13.64-1.95h11.69v-46h17v-8.58H227.77v8.58h16.67Z"/><path class="cls-7" d="M326.65,220.67H309.88l-3.3-10.56H289.33l-3.26,10.56H269.38l21.46-58.51H305l.24.63Zm-15.33-1.95h12.52l-20.18-54.61H292.2l-20,54.61h12.46l3.26-10.56H308Zm-6-19.14H290.55l7.38-23.89Zm-12.17-2h9.52l-4.77-15.35Z"/><path class="cls-7" d="M367.71,220.67H328.39V162.16H344v46.07h23.74Zm-37.37-1.95h35.42v-8.53H342V164.11H330.34Z"/><path class="cls-5" d="M230.05,80.76a2.9,2.9,0,0,0-.63,2V109h-.15S214.9,83.4,214.21,82.21a4.86,4.86,0,0,0-1.77-1.85,5.37,5.37,0,0,0-2.91-.67h-4.75a2.76,2.76,0,0,0-2.28,1,2.81,2.81,0,0,0-.64,2v37.21a2.82,2.82,0,0,0,.64,2,2.76,2.76,0,0,0,2.28,1h2.69a2.8,2.8,0,0,0,2.29-1,2.87,2.87,0,0,0,.63-2V93h.15s14.91,26.42,15.52,27.4a4.83,4.83,0,0,0,4.28,2.43h4.6a2.76,2.76,0,0,0,2.28-1,2.82,2.82,0,0,0,.64-2V86.29h60.39a2.14,2.14,0,0,0,1.42-.47,1.86,1.86,0,0,0,.55-1.5V81.78a1.88,1.88,0,0,0-.55-1.51,2.14,2.14,0,0,0-1.42-.46H232.34a2.81,2.81,0,0,0-2.29,1Zm26.37,9.95c-10,0-15.67,7.83-15.67,16.1,0,8.82,6,16.57,15.73,16.57,4.83,0,9.57-1.82,12.28-5a8.53,8.53,0,0,0,2.14-4.51,1.46,1.46,0,0,0-.31-1,1.4,1.4,0,0,0-1.19-.47h-4.65a2.23,2.23,0,0,0-2,1,6.92,6.92,0,0,1-6.21,3,7.22,7.22,0,0,1-7.35-6.91h20.12a2.65,2.65,0,0,0,2-.63,3,3,0,0,0,.72-2.38A16.92,16.92,0,0,0,268.3,95.8c-2.54-3-6.42-5.09-11.88-5.09Zm31,0c-7.92,0-13.12,3.76-13.12,9.77a7.46,7.46,0,0,0,2.05,5.24c1.47,1.59,3.58,2.68,6.65,3.46l6.62,1.68c1.82.46,3.44,1,3.44,2.6,0,2.46-2.6,3.3-5.38,3.3a9,9,0,0,1-3.93-.84,4.92,4.92,0,0,1-2-1.76c-.43-.67-.57-1.16-1.24-1.54a3.11,3.11,0,0,0-1.56-.26h-3.59a1.64,1.64,0,0,0-1.41.55,2,2,0,0,0-.35,1.25,6.82,6.82,0,0,0,1.36,3.9c2.2,3,6.79,5.32,12.66,5.32s13.79-2.4,13.79-10.15a8.14,8.14,0,0,0-1.64-5.09c-1.36-1.76-3.3-3-6.6-3.81l-6.56-1.68c-2.72-.69-4-1.18-4-2.86s1.45-2.92,4.8-2.92a6.59,6.59,0,0,1,4.92,1.65c.95,1,.78,1.53,1.53,1.93a4,4,0,0,0,1.79.23H299a1.44,1.44,0,0,0,1.18-.4,1.93,1.93,0,0,0,.38-1.33A7.09,7.09,0,0,0,297.79,94a15.89,15.89,0,0,0-10.35-3.32Zm18,1.1h-1.62a2.11,2.11,0,0,0-1.41.46,1.87,1.87,0,0,0-.55,1.5v2a1.86,1.86,0,0,0,.55,1.5,2.12,2.12,0,0,0,1.41.47h1.62v14.42c0,3.7,1,6,2.89,7.87s4,2.77,7.93,2.77h2.45a2.14,2.14,0,0,0,1.42-.46,1.9,1.9,0,0,0,.61-1.5v-2.52a1.89,1.89,0,0,0-.61-1.5,2.14,2.14,0,0,0-1.42-.47h-.34a4.63,4.63,0,0,1-3.36-1.09,4.83,4.83,0,0,1-1.3-3.68V97.74H319a2.14,2.14,0,0,0,1.42-.47,1.86,1.86,0,0,0,.55-1.5v-2a1.87,1.87,0,0,0-.55-1.5,2.14,2.14,0,0,0-1.42-.46h-5.23V82.38a2.63,2.63,0,0,0-.58-1.73,2.36,2.36,0,0,0-1.94-.84H308a2.36,2.36,0,0,0-1.94.84,2.63,2.63,0,0,0-.58,1.73v9.43Zm17.7,28.42a2.68,2.68,0,0,0,.57,1.73,2.38,2.38,0,0,0,1.94.84h3.44A2.36,2.36,0,0,0,331,122a2.63,2.63,0,0,0,.58-1.73V82.39a2.63,2.63,0,0,0-.58-1.74,2.36,2.36,0,0,0-1.94-.84h-3.44a2.38,2.38,0,0,0-1.94.84,2.69,2.69,0,0,0-.57,1.74v37.84Zm-73.93-16.86a7.31,7.31,0,0,1,14.46,0ZM362.93,86.29a2.1,2.1,0,0,0,1.41-.47,1.86,1.86,0,0,0,.55-1.5V81.63a2.62,2.62,0,0,0-.55-1.94,1.91,1.91,0,0,0-1.41-.54,15.13,15.13,0,0,0-1.71.14l-23.07,2.28a1.65,1.65,0,0,0-1.21.52,1.69,1.69,0,0,0-.38,1.19v1.5a1.43,1.43,0,0,0,.32,1.07,1.47,1.47,0,0,0,1.16.44Zm-12.75,4.42c-10,0-15.67,7.83-15.67,16.1,0,8.82,6,16.57,15.73,16.57,4.82,0,9.57-1.82,12.28-5a8.53,8.53,0,0,0,2.14-4.51,1.41,1.41,0,0,0-.32-1,1.36,1.36,0,0,0-1.18-.47H358.5a2.23,2.23,0,0,0-2,1,6.92,6.92,0,0,1-6.22,3,7.21,7.21,0,0,1-7.34-6.91H363.1a2.67,2.67,0,0,0,2-.63,3,3,0,0,0,.72-2.38,17,17,0,0,0-3.67-10.72c-2.55-3-6.48-5.09-11.94-5.09ZM343,103.37a7.31,7.31,0,0,1,14.45,0Z"/><path class="cls-5" d="M169.26,86.63c-7.49-11.16-14.06-14.92-15.92-16.69-2-2-3.58-4.17-4.56-5.23-2.19-2.4-5-5.35-9.7-5.35a9,9,0,0,0-8.45,5.47c-.28.72-.5,1.61-.7,1.93-.44.72-2.43,4.12-3.26,5.47h3.72l-1.81,3.42a24.52,24.52,0,0,1,5.63-.81c1.79,0,3.08.43,3.65,1.55,1,2.1,1,8.43,2.81,13.2,1.65,4.48,5.67,8.87,10.2,12.23a.36.36,0,0,0,.56-.26.39.39,0,0,0-.14-.3,35.13,35.13,0,0,1-8.51-12.55C141.15,84.24,141.42,78,140,75.17c-1-1.85-3-2.34-4.81-2.34a15.91,15.91,0,0,0-3.52.45l1.63-2.76h-2.76c.59-1,1.19-2,1.49-2.54s.36-1.08.69-1.91a6.6,6.6,0,0,1,6.37-4.3c3.78,0,6,2.43,8.19,4.87a58.65,58.65,0,0,0,4.57,5.23c1.3,1.2,3.8,2.55,7.64,6.52a69.32,69.32,0,0,1,7.5,9.25c9.72,14.22,16.1,26.75,19.66,36.53l-.06,0c-10.2-6.92-19-13.46-26.15-21.53a81.34,81.34,0,0,1-13.26-20.84c-.26-.56-.48-1.08-.73-1.62-.1-.23-.2-.29-.36-.29a.33.33,0,0,0-.34.35,11.37,11.37,0,0,0,.32,1.67c2,8.77,7.67,16.63,13.68,23.17a128,128,0,0,0,18.35,16.15l4.34,12.43a3.22,3.22,0,0,1,.22.93.65.65,0,0,1-.2.52.81.81,0,0,1-.64.18H180.5a1.43,1.43,0,0,1-1-.24,1.49,1.49,0,0,1-.44-.68c-.38-1.17-2.67-7.71-3.11-9-.09-.24-.23-.32-.39-.32a.34.34,0,0,0-.34.34,8.22,8.22,0,0,0,.16.91c.58,3,1.27,6.32,1.55,7.58a9.21,9.21,0,0,1,.26,1.53,1.06,1.06,0,0,1-.38.87l-1.35,1.37c-.32.32-.5.4-.76.4s-.59-.22-.71-.79c-1.53-7.14-3.84-16-4.44-18.44-.14-.55-.24-.85-.57-.85s-.38.2-.38.45a4.8,4.8,0,0,0,.06.56c.36,2.53,1.83,11.77,3.42,20.19.28,1.45.83,2.26,2.07,2.26a2.25,2.25,0,0,0,1.61-.71c.83-.82,1.07-1,2.06-2a2.84,2.84,0,0,1,2.39-1h3a1.82,1.82,0,0,0,1.42-.51,1.68,1.68,0,0,0,.53-1.32,5,5,0,0,0-.38-1.75c-.77-2.06-3.22-9-4-10.95l.06,0c2.52,1.91,6.18,4.35,7.79,4.35.5,0,.8-.22.8-1,0-3.7-6.15-18.93-20.21-39.89Z"/><path class="cls-5" d="M100.2,63.26a2.71,2.71,0,1,1,4.08,3.32,5.55,5.55,0,0,1,.24,1.42c0,1.7-1,2.88-2.85,3.51a5.19,5.19,0,0,1-1.41,2.63c-1.21,1.17-2.44,1.17-2.44,1.65,0,.26.19.42.69.42,2.23,0,4.42-1.24,4.69-3.32a5.15,5.15,0,0,0,3.42-4.58,2.44,2.44,0,0,0-.23-1.19,4,4,0,0,0,1.27-3,4.92,4.92,0,0,0-9-2.65c-2.19,0-5,2.43-5,5.91h-.3a2.74,2.74,0,0,0-2.5-2.07C90,62.82,88.09,60.64,85,60.64a8.2,8.2,0,0,0-1.19.08,4.74,4.74,0,0,0-3.38-1.36,5,5,0,0,0-5,5,4.58,4.58,0,0,0,2.27,4s0,.22,0,.32a6.3,6.3,0,0,0,6,5.67,1.87,1.87,0,0,0,1.49,1.47V76h-.3c-4.93,0-7,2.38-7,4a4.17,4.17,0,0,0-2.41,3.75,5,5,0,0,0,5.09,5.13A4.54,4.54,0,0,0,83.14,88a5.55,5.55,0,0,0,1.81.28,4.65,4.65,0,0,0,4-2.07,3.77,3.77,0,0,0,.47,0,4.77,4.77,0,0,0,4.1-2.7,2,2,0,0,0,.28-.9c0-.22-.1-.4-.32-.4s-.32.26-.82.72a6.87,6.87,0,0,1-4.63,1.41,3.82,3.82,0,0,1-3.16,1.93,4,4,0,0,1-2.33-.72,2.68,2.68,0,0,1-2,.9,2.6,2.6,0,0,1-2.72-2.71,2.71,2.71,0,0,1,1.73-2.52c.18-2,2.31-3.34,5-3.34a9.33,9.33,0,0,1,1,.06,3.85,3.85,0,0,1,2.74-1.51,2.35,2.35,0,0,0,.66-.14.44.44,0,0,0,.25-.42.43.43,0,0,0-.23-.4,2.73,2.73,0,0,0-.66-.18,4.64,4.64,0,0,1-3.54-2.94,5.21,5.21,0,0,1-5.27-5.17V67a2.72,2.72,0,0,1,1-5.23,2.73,2.73,0,0,1,2.19,1.11,5.32,5.32,0,0,1,6.5,4A4.17,4.17,0,0,1,93,70.64c.1.52.18,1,.52,1s.44-.41.56-1a4.19,4.19,0,0,1,1.37-2.49,4.78,4.78,0,0,1,4.77-4.91Z"/><path class="cls-5" d="M106.05,79c-.94,1.35-1.63,2-3.78,4.54-2.84,3.36-4.32,6.08-6.8,12.11.4,0,1-.08,1.63-.08.32,0,.58,0,1,0l.3-.64a45.83,45.83,0,0,1,5.87-10.1l.91-1.06c2.69-3.16,4.36-5,5.41-9.34.36-1.53.66-2.89,1.69-3.88a4.66,4.66,0,0,1,3.28-1.27,6.57,6.57,0,0,1,2.83.71,4.81,4.81,0,0,0,2.4.5c.36,0,.62,0,.86,0l-1.41,1.89,1.91,1.35a6.91,6.91,0,0,0-4.08,4.08,1.47,1.47,0,0,0-.12.51.29.29,0,0,0,.32.32c.26,0,.47-.2.81-.61,1.16-1.41,2.09-2.37,6.39-3.72l-3-2.29,2.29-3.36h-2.15a7.37,7.37,0,0,1-3.46-.56A8,8,0,0,0,115.27,67a6.71,6.71,0,0,0-4.65,1.83c-1.51,1.39-2,3.24-2.52,5.27a14.58,14.58,0,0,1-2,4.89Z"/><path class="cls-5" d="M110.68,92.73a53.89,53.89,0,0,0-3.92,5.73c.38.18,1.65.87,2.09,1.11,1.39-2.1,3.32-4.67,4.58-6.62A7.67,7.67,0,0,0,115.12,88c0-.4,0-.78.06-1.17a5.43,5.43,0,0,1,1.59-3.62,4.8,4.8,0,0,1,3.36-1.3c1.21,0,1.91.34,3,.34a4.77,4.77,0,0,0,1.77-.36l.38-.15L124.32,84l2.17.88a12.06,12.06,0,0,0-4.43,9,17.36,17.36,0,0,0,.59,4.37.33.33,0,0,0,.34.28.34.34,0,0,0,.36-.34l0-.46a23.78,23.78,0,0,1,.71-5.39,13.89,13.89,0,0,1,5.77-7.69l-3.46-1.51,1.49-3.64-1.63.34a12.63,12.63,0,0,1-2.58.39,8.76,8.76,0,0,1-2-.27,8.29,8.29,0,0,0-2.09-.26,6.63,6.63,0,0,0-4.47,1.73c-2.13,2-2.25,4.23-2.39,6.18-.18,2.59-.66,3.24-2.07,5.13Z"/><path class="cls-5" d="M162.3,94a.54.54,0,0,0-.43-.26.33.33,0,0,0-.36.34c0,.29.2.63.71,1.47a41.49,41.49,0,0,0,5.75,7.67,57,57,0,0,0,8.63,7.4l1,.68a.61.61,0,0,0,.37.17.37.37,0,0,0,.18-.67c-2.94-2.67-6.1-5.93-9.06-9.07-2.31-2.48-4.68-5.09-6.77-7.73Z"/><path class="cls-5" d="M97.56,84.84a20.65,20.65,0,0,1,1.57-2.11,34,34,0,0,0-5.19-7.32l-.92.9a51.36,51.36,0,0,1,4.54,8.53Z"/><path class="cls-5" d="M82.82,66.68c-.18-.16-.22-.26-.22-.38a.3.3,0,0,1,.32-.31.69.69,0,0,1,.26.06,16.24,16.24,0,0,1,3.88,2.18,18.17,18.17,0,0,1,2.78,2.67l-.85,1c-1-.87-4.42-3.7-6.17-5.19Z"/><path class="cls-5" d="M97.08,73.42,96,72.75a15.67,15.67,0,0,1,2.6-4.34,20.9,20.9,0,0,1,2.17-2.15c.18-.14.28-.27.46-.27a.34.34,0,0,1,.35.33.58.58,0,0,1-.12.3c-1.23,1.91-3.63,5.69-4.37,6.8Z"/><path class="cls-5" d="M83.44,82.75a1.58,1.58,0,0,1-.52.16.31.31,0,0,1-.32-.32c0-.14.06-.22.2-.34a15.33,15.33,0,0,1,7.64-3.2l.36,1.21-7.36,2.49Z"/><path class="cls-5" d="M135,67.14a1.79,1.79,0,0,1,1.67-2,2.94,2.94,0,0,1,1.21.26c.48.22.8.54.8.89s-.36.72-.91,1.16a3.41,3.41,0,0,1-1.87.89c-.7,0-.9-.67-.9-1.23Z"/><path class="cls-5" d="M114.62,73a1.66,1.66,0,0,1,1.53-1.81,2,2,0,0,1,1.35.55.86.86,0,0,1,.32.64c0,.48-.46,1-1,1.27a2.65,2.65,0,0,1-1.24.4c-.63,0-.95-.38-.95-1Z"/><path class="cls-5" d="M119.35,85.43a2.17,2.17,0,0,1,.1-.69,1.29,1.29,0,0,1,1.35-1,2,2,0,0,1,1.14.34.84.84,0,0,1,.43.72c0,.87-1.45,1.87-2.18,1.87-.52,0-.84-.5-.84-1.22Z"/><path class="cls-5" d="M111.42,110.81c-2.71,0-3.92-1.29-3.92-2.91,0-2.86,5-5.66,9.52-7.39l1.16,1.51c-2.77,1.11-8.37,3.48-8.37,5.53,0,.73.43,1.25,2.12,1.25,2.93,0,6.09-1.43,9-2.86a1.85,1.85,0,0,1,.72-.2,1,1,0,0,1,.91.53l.48.66c-3.4,1.87-7.64,3.88-11.63,3.88Z"/><path class="cls-5" d="M118.91,111.58a17,17,0,0,1-7.85,2.47c-2.71,0-5.13-1.17-7.14-4.2-.84-1.29-1.51-2.9-2.31-4.33-1-1.69-2-2.59-3.85-2.59a13.2,13.2,0,0,0-5,1.42l.08.39c.14.62.38,1.06,1,1.06a2.44,2.44,0,0,0,.67-.16,8.27,8.27,0,0,1,2.65-.56c1.51,0,2.23.88,3.26,3.06l.38.8a21.7,21.7,0,0,1-5.33.54h-.86l.14.87a1,1,0,0,0,.5.8,4.13,4.13,0,0,0,1.79.21,20.84,20.84,0,0,0,4.93-.53,10.75,10.75,0,0,0,9.15,5.09,17.73,17.73,0,0,0,8.35-2.51l-.5-1.83Z"/><path class="cls-5" d="M121.64,112.48l-.48-1.85c4.14-2.23,7.92-4,14-4.61.12,2.32,0,5.23,1.67,5.23s5-4,8.93-9.11c.36.34.95.71,1.47,1.11l-1,1.31c-3.84,4.94-7.12,9.17-9.81,9.17-2.52,0-3.46-3-3.5-5.17a26.58,26.58,0,0,0-11.23,3.92Z"/><path class="cls-5" d="M174.87,72.11c-1.57,0-2-.87-2-2.09,0-2.54,1.59-6.18,2.59-8.25H173a118.77,118.77,0,0,1-9,13.58L165.61,77a64,64,0,0,0,4.77-7h.32c0,.14,0,.3,0,.44,0,2.27,1.17,4,4,4,1.77,0,4.54-.88,7.16-1.77,2.17-.74,4.16-1.51,5.15-1.79V68.41c-1.13.34-3.42,1.22-5.8,2a25.07,25.07,0,0,1-6.37,1.65Z"/><path class="cls-5" d="M180.24,79.41c2.41-1,6.74-2.76,9.23-3.66V73.3a174.43,174.43,0,0,0-19.79,8.75c.16.2,1.21,1.67,1.33,1.85a18.54,18.54,0,0,1,6.86-1.73,34.5,34.5,0,0,0,9.17-.93V79.39a42.28,42.28,0,0,1-6.1.89c-.9,0-1.16-.13-1.16-.43s.12-.3.46-.44Z"/><polygon class="cls-5" points="127.74 92.57 138.02 92.57 137.25 90.72 128.7 90.72 127.74 92.57 127.74 92.57"/><path class="cls-5" d="M91.67,101.76a7.32,7.32,0,0,0,2.82-.7,6.66,6.66,0,0,1,2.69-.65c2.58,0,5.75,1.25,8.55,2.44a1.5,1.5,0,0,0,.52.1,1.08,1.08,0,0,0,1-.63l.36-.66c-3.08-1.79-8-3.7-10.54-3.7a7.16,7.16,0,0,0-2.82.62,7.15,7.15,0,0,1-2.51.75c-2,0-7.24-2-7.24-4,0-2.29,8.29-3.17,9.19-3.17l.83-1.88c-6,0-13.18,2.12-13.18,4.91,0,.81.46,1.21.46,2,0,1-.46,1.69-.46,2.82a5.24,5.24,0,0,0,1,2.51c.56.87,1.22,1.43,1.22,2.16a18.36,18.36,0,0,0-.36,2.45c0,2.72,1.55,4.37,4.57,7.6l.6.65c-2.49,1-7.14,3-8.23,3.44-3.76,1.57-4.7,3.48-4.7,6.49,0,1.17,0,2.5.08,3.69h.72c1.51,0,1.69-.91,1.69-1.77,0-.59,0-1.25,0-2,0-1.66.08-3.15,2.78-4.36,1.08-.48,6.41-2.66,10.38-4.35a8.7,8.7,0,0,1,3.46-.92,9.88,9.88,0,0,1,4.82,1.73,20.13,20.13,0,0,1,4.69,3.78l1.71-1.31a22.23,22.23,0,0,0-5.53-4.48,11.17,11.17,0,0,0-5.37-1.91,6.37,6.37,0,0,0-1.67.24,6.35,6.35,0,0,1-1.69.3,2.69,2.69,0,0,1-2.27-1.23c-.35-.38-2.52-2.85-3-3.58a3.46,3.46,0,0,1-.63-1.83,2.29,2.29,0,0,1,.27-1.1,13.92,13.92,0,0,0,7,2.67L92.47,107c-4-1.07-8.34-4.63-8.34-6.92a3,3,0,0,1,.3-1.25,13.86,13.86,0,0,0,7.24,3Z"/><path class="cls-5" d="M120.62,102.12a11.91,11.91,0,0,1,7.26-2,36.17,36.17,0,0,1,4.32.38,28.84,28.84,0,0,0,3.78.28,18.21,18.21,0,0,0,6.74-1.53,13,13,0,0,0,1.39,1.39A17.64,17.64,0,0,1,136,103a33.5,33.5,0,0,1-4.62-.39,29.35,29.35,0,0,0-3.78-.3,16.47,16.47,0,0,0-5.92,1.23l-1.1-1.45Z"/><path class="cls-5" d="M158,109.3A30.83,30.83,0,0,1,145.66,123c-2.23,1.27-4.24,2.09-8.59,2.09h-9.39a26.78,26.78,0,0,0-7.12.87,16.81,16.81,0,0,1-4.69.92,9.24,9.24,0,0,1-6.3-2.55l2.22-1.75-1.11-1.47c-.64.46-8.51,6.28-10.16,7.58l-.1-.06a10.86,10.86,0,0,0,0-1.12c0-4.43-2-5.49-5.17-6.74L93.18,122c4.28,1.42,5.35,2.57,5.35,5.77,0,2.53-.91,3.54-2.21,4.3a9.15,9.15,0,0,1-4.49,1.15,1.45,1.45,0,0,0-1.13.34,1.51,1.51,0,0,0-.36,1.11v.7h.5a11.73,11.73,0,0,0,7.93-2.57l8.91-7a11.76,11.76,0,0,0,8.25,3.46,19.92,19.92,0,0,0,5.47-1,22.38,22.38,0,0,1,6.28-.72h9.43a17.25,17.25,0,0,0,9.74-2.46,31.54,31.54,0,0,0,13.05-14.54c-.7-.44-1.37-.85-1.93-1.23Z"/><path class="cls-5" d="M142.82,116.87c2.44-3.91,4.61-7.37,9.94-10.18-.56-.34-1.37-.87-1.79-1.15a20.07,20.07,0,0,0-5.87,4.55c-4,4.18-3.66,6.6-7.91,8.22a28.55,28.55,0,0,1-4,1.23c-1-3-3.46-6.05-6.08-6.05-1.81,0-3.9.94-6.31,2a52.89,52.89,0,0,0-6.26,3.22l1.11,1.49c.84-.47,3.28-1.67,5.71-2.72a16.26,16.26,0,0,1,5.31-1.65c2.07,0,3.42,2.35,4.16,4.24a46.55,46.55,0,0,1-8.52.81,1.44,1.44,0,0,0-1.07.28,1.79,1.79,0,0,0-.46,1l-.16.68H122c7.53,0,14.63-1.19,19.19-4a6.79,6.79,0,0,0,1.94.3,12.39,12.39,0,0,0,7-2.74,1.56,1.56,0,0,0,.74-1.34,6.26,6.26,0,0,0,0-.63l-.08-.78c-2.41,1.91-4.43,3.34-6.92,3.34a3.59,3.59,0,0,1-1-.12Z"/><path class="cls-5" d="M364.84,120.18a3.12,3.12,0,0,1,.24-1.22,3.36,3.36,0,0,1,.68-1,3.26,3.26,0,0,1,1-.67,3.05,3.05,0,0,1,2.42,0,3.44,3.44,0,0,1,1,.67,3.53,3.53,0,0,1,.67,1,3.13,3.13,0,0,1,.25,1.22,3.08,3.08,0,0,1-.25,1.21,3.26,3.26,0,0,1-.67,1,3.08,3.08,0,0,1-1,.67,3.05,3.05,0,0,1-2.42,0,2.94,2.94,0,0,1-1-.67,3.12,3.12,0,0,1-.68-1A3.07,3.07,0,0,1,364.84,120.18Zm.45,0a2.61,2.61,0,0,0,.21,1,2.76,2.76,0,0,0,.57.85,2.65,2.65,0,0,0,.85.57,2.68,2.68,0,0,0,2.08,0,2.65,2.65,0,0,0,.85-.57,2.76,2.76,0,0,0,.57-.85,2.61,2.61,0,0,0,.21-1,2.58,2.58,0,0,0-.21-1,2.65,2.65,0,0,0-1.42-1.42,2.68,2.68,0,0,0-2.08,0,2.65,2.65,0,0,0-1.42,1.42A2.58,2.58,0,0,0,365.29,120.18Zm2,1.79h-.45v-3.61h1.38a1.25,1.25,0,0,1,.88.26,1,1,0,0,1,.26.74,1.1,1.1,0,0,1-.08.43.77.77,0,0,1-.19.3.91.91,0,0,1-.29.19,1.42,1.42,0,0,1-.35.11l1.07,1.58H369l-1.07-1.58h-.65Zm0-2h1a1.14,1.14,0,0,0,.33-.07.65.65,0,0,0,.24-.19.58.58,0,0,0,.09-.35.54.54,0,0,0-.07-.29.77.77,0,0,0-.18-.18,1.14,1.14,0,0,0-.26-.09l-.29,0h-.81Z"/></g></svg>